<mxfile host="65bd71144e">
    <diagram id="cQ3utKzj6t_czdYG7g_h" name="Page-1">
        <mxGraphModel dx="785" dy="505" grid="1" gridSize="10" guides="1" tooltips="1" connect="1" arrows="1" fold="1" page="1" pageScale="1" pageWidth="850" pageHeight="1100" math="0" shadow="0">
            <root>
                <mxCell id="0"/>
                <mxCell id="1" parent="0"/>
                <mxCell id="2" value="Account" style="whiteSpace=wrap;html=1;align=center;" vertex="1" parent="1">
                    <mxGeometry x="210" y="360" width="100" height="40" as="geometry"/>
                </mxCell>
                <mxCell id="3" value="accountId" style="ellipse;whiteSpace=wrap;html=1;align=center;fontStyle=4;" vertex="1" parent="1">
                    <mxGeometry x="80" y="270" width="100" height="40" as="geometry"/>
                </mxCell>
                <mxCell id="4" value="createdAt" style="ellipse;whiteSpace=wrap;html=1;align=center;" vertex="1" parent="1">
                    <mxGeometry x="30" y="370" width="100" height="40" as="geometry"/>
                </mxCell>
                <mxCell id="5" value="email" style="ellipse;whiteSpace=wrap;html=1;align=center;" vertex="1" parent="1">
                    <mxGeometry x="50" y="320" width="100" height="40" as="geometry"/>
                </mxCell>
                <mxCell id="6" value="lastLogin" style="ellipse;whiteSpace=wrap;html=1;align=center;" vertex="1" parent="1">
                    <mxGeometry x="50" y="420" width="100" height="40" as="geometry"/>
                </mxCell>
                <mxCell id="7" value="failAttempts" style="ellipse;whiteSpace=wrap;html=1;align=center;" vertex="1" parent="1">
                    <mxGeometry x="80" y="470" width="100" height="40" as="geometry"/>
                </mxCell>
                <mxCell id="8" value="" style="endArrow=none;html=1;rounded=0;exitX=0;exitY=0.5;exitDx=0;exitDy=0;entryX=1;entryY=1;entryDx=0;entryDy=0;" edge="1" parent="1" source="2" target="3">
                    <mxGeometry relative="1" as="geometry">
                        <mxPoint x="450" y="390" as="sourcePoint"/>
                        <mxPoint x="610" y="390" as="targetPoint"/>
                    </mxGeometry>
                </mxCell>
                <mxCell id="9" value="" style="endArrow=none;html=1;rounded=0;exitX=0;exitY=0.5;exitDx=0;exitDy=0;entryX=1;entryY=0.5;entryDx=0;entryDy=0;" edge="1" parent="1" source="2" target="5">
                    <mxGeometry relative="1" as="geometry">
                        <mxPoint x="220" y="390" as="sourcePoint"/>
                        <mxPoint x="175.35533905932743" y="314.14213562373106" as="targetPoint"/>
                    </mxGeometry>
                </mxCell>
                <mxCell id="10" value="" style="endArrow=none;html=1;rounded=0;exitX=0;exitY=0.5;exitDx=0;exitDy=0;entryX=1;entryY=0.5;entryDx=0;entryDy=0;" edge="1" parent="1" source="2" target="4">
                    <mxGeometry relative="1" as="geometry">
                        <mxPoint x="230" y="400" as="sourcePoint"/>
                        <mxPoint x="185.35533905932743" y="324.14213562373106" as="targetPoint"/>
                    </mxGeometry>
                </mxCell>
                <mxCell id="11" value="" style="endArrow=none;html=1;rounded=0;exitX=0;exitY=0.5;exitDx=0;exitDy=0;entryX=1;entryY=0.5;entryDx=0;entryDy=0;" edge="1" parent="1" source="2" target="6">
                    <mxGeometry relative="1" as="geometry">
                        <mxPoint x="240" y="410" as="sourcePoint"/>
                        <mxPoint x="195.35533905932743" y="334.14213562373106" as="targetPoint"/>
                    </mxGeometry>
                </mxCell>
                <mxCell id="12" value="" style="endArrow=none;html=1;rounded=0;exitX=0;exitY=0.5;exitDx=0;exitDy=0;entryX=1;entryY=0;entryDx=0;entryDy=0;" edge="1" parent="1" source="2" target="7">
                    <mxGeometry relative="1" as="geometry">
                        <mxPoint x="250" y="420" as="sourcePoint"/>
                        <mxPoint x="205.35533905932743" y="344.14213562373106" as="targetPoint"/>
                    </mxGeometry>
                </mxCell>
                <mxCell id="13" value="Password" style="whiteSpace=wrap;html=1;align=center;" vertex="1" parent="1">
                    <mxGeometry x="570" y="360" width="100" height="40" as="geometry"/>
                </mxCell>
                <mxCell id="14" value="hash" style="ellipse;whiteSpace=wrap;html=1;align=center;" vertex="1" parent="1">
                    <mxGeometry x="720" y="420" width="100" height="40" as="geometry"/>
                </mxCell>
                <mxCell id="15" value="passwordId" style="ellipse;whiteSpace=wrap;html=1;align=center;fontStyle=4;" vertex="1" parent="1">
                    <mxGeometry x="730" y="370" width="100" height="40" as="geometry"/>
                </mxCell>
                <mxCell id="16" value="createdAt" style="ellipse;whiteSpace=wrap;html=1;align=center;" vertex="1" parent="1">
                    <mxGeometry x="700" y="270" width="100" height="40" as="geometry"/>
                </mxCell>
                <mxCell id="17" value="updatedAt" style="ellipse;whiteSpace=wrap;html=1;align=center;" vertex="1" parent="1">
                    <mxGeometry x="700" y="470" width="100" height="40" as="geometry"/>
                </mxCell>
                <mxCell id="18" value="accountId" style="ellipse;whiteSpace=wrap;html=1;align=center;dashed=1;" vertex="1" parent="1">
                    <mxGeometry x="720" y="320" width="100" height="40" as="geometry"/>
                </mxCell>
                <mxCell id="19" value="" style="endArrow=none;html=1;rounded=0;entryX=0;entryY=1;entryDx=0;entryDy=0;exitX=1;exitY=0.5;exitDx=0;exitDy=0;" edge="1" parent="1" source="13" target="16">
                    <mxGeometry relative="1" as="geometry">
                        <mxPoint x="450" y="390" as="sourcePoint"/>
                        <mxPoint x="610" y="390" as="targetPoint"/>
                    </mxGeometry>
                </mxCell>
                <mxCell id="20" value="" style="endArrow=none;html=1;rounded=0;entryX=0;entryY=0.5;entryDx=0;entryDy=0;exitX=1;exitY=0.5;exitDx=0;exitDy=0;" edge="1" parent="1" source="13" target="18">
                    <mxGeometry relative="1" as="geometry">
                        <mxPoint x="450" y="390" as="sourcePoint"/>
                        <mxPoint x="610" y="390" as="targetPoint"/>
                    </mxGeometry>
                </mxCell>
                <mxCell id="21" value="" style="endArrow=none;html=1;rounded=0;entryX=0;entryY=0.5;entryDx=0;entryDy=0;exitX=1;exitY=0.5;exitDx=0;exitDy=0;" edge="1" parent="1" source="13" target="15">
                    <mxGeometry relative="1" as="geometry">
                        <mxPoint x="450" y="390" as="sourcePoint"/>
                        <mxPoint x="610" y="390" as="targetPoint"/>
                    </mxGeometry>
                </mxCell>
                <mxCell id="22" value="" style="endArrow=none;html=1;rounded=0;entryX=0;entryY=0.5;entryDx=0;entryDy=0;exitX=1;exitY=0.5;exitDx=0;exitDy=0;" edge="1" parent="1" source="13" target="14">
                    <mxGeometry relative="1" as="geometry">
                        <mxPoint x="450" y="390" as="sourcePoint"/>
                        <mxPoint x="610" y="390" as="targetPoint"/>
                    </mxGeometry>
                </mxCell>
                <mxCell id="23" value="" style="endArrow=none;html=1;rounded=0;entryX=0;entryY=0;entryDx=0;entryDy=0;exitX=1;exitY=0.5;exitDx=0;exitDy=0;" edge="1" parent="1" source="13" target="17">
                    <mxGeometry relative="1" as="geometry">
                        <mxPoint x="450" y="390" as="sourcePoint"/>
                        <mxPoint x="610" y="390" as="targetPoint"/>
                    </mxGeometry>
                </mxCell>
                <mxCell id="24" value="has" style="shape=rhombus;perimeter=rhombusPerimeter;whiteSpace=wrap;html=1;align=center;" vertex="1" parent="1">
                    <mxGeometry x="380" y="350" width="120" height="60" as="geometry"/>
                </mxCell>
                <mxCell id="27" value="" style="endArrow=none;html=1;rounded=0;entryX=0;entryY=0.5;entryDx=0;entryDy=0;exitX=1;exitY=0.5;exitDx=0;exitDy=0;" edge="1" parent="1" source="24" target="13">
                    <mxGeometry relative="1" as="geometry">
                        <mxPoint x="450" y="390" as="sourcePoint"/>
                        <mxPoint x="550" y="390" as="targetPoint"/>
                    </mxGeometry>
                </mxCell>
                <mxCell id="28" value="1" style="resizable=0;html=1;align=right;verticalAlign=bottom;" connectable="0" vertex="1" parent="27">
                    <mxGeometry x="1" relative="1" as="geometry"/>
                </mxCell>
                <mxCell id="29" value="" style="endArrow=none;html=1;rounded=0;entryX=1;entryY=0.5;entryDx=0;entryDy=0;exitX=0;exitY=0.5;exitDx=0;exitDy=0;" edge="1" parent="1" source="24" target="2">
                    <mxGeometry relative="1" as="geometry">
                        <mxPoint x="580" y="390" as="sourcePoint"/>
                        <mxPoint x="510" y="390" as="targetPoint"/>
                    </mxGeometry>
                </mxCell>
                <mxCell id="30" value="1" style="resizable=0;html=1;align=right;verticalAlign=bottom;" connectable="0" vertex="1" parent="29">
                    <mxGeometry x="1" relative="1" as="geometry">
                        <mxPoint x="10" as="offset"/>
                    </mxGeometry>
                </mxCell>
                <mxCell id="31" value="Password History" style="shape=ext;margin=3;double=1;whiteSpace=wrap;html=1;align=center;" vertex="1" parent="1">
                    <mxGeometry x="210" y="90" width="100" height="40" as="geometry"/>
                </mxCell>
                <mxCell id="32" value="accountId" style="ellipse;whiteSpace=wrap;html=1;align=center;dashed=1;" vertex="1" parent="1">
                    <mxGeometry x="375" y="130" width="100" height="40" as="geometry"/>
                </mxCell>
                <mxCell id="33" value="pwdHistoryId" style="ellipse;whiteSpace=wrap;html=1;align=center;fontStyle=4;" vertex="1" parent="1">
                    <mxGeometry x="330" y="30" width="100" height="40" as="geometry"/>
                </mxCell>
                <mxCell id="34" value="hash" style="ellipse;whiteSpace=wrap;html=1;align=center;" vertex="1" parent="1">
                    <mxGeometry x="375" y="80" width="100" height="40" as="geometry"/>
                </mxCell>
                <mxCell id="35" value="createdAt" style="ellipse;whiteSpace=wrap;html=1;align=center;" vertex="1" parent="1">
                    <mxGeometry x="330" y="180" width="100" height="40" as="geometry"/>
                </mxCell>
                <mxCell id="36" value="" style="endArrow=none;html=1;rounded=0;exitX=1;exitY=0.5;exitDx=0;exitDy=0;entryX=0;entryY=0;entryDx=0;entryDy=0;" edge="1" parent="1" source="31" target="35">
                    <mxGeometry relative="1" as="geometry">
                        <mxPoint x="250" y="310" as="sourcePoint"/>
                        <mxPoint x="290" y="190" as="targetPoint"/>
                    </mxGeometry>
                </mxCell>
                <mxCell id="37" value="" style="endArrow=none;html=1;rounded=0;exitX=1;exitY=0.5;exitDx=0;exitDy=0;entryX=0;entryY=0.5;entryDx=0;entryDy=0;" edge="1" parent="1" source="31" target="32">
                    <mxGeometry relative="1" as="geometry">
                        <mxPoint x="250" y="310" as="sourcePoint"/>
                        <mxPoint x="410" y="310" as="targetPoint"/>
                    </mxGeometry>
                </mxCell>
                <mxCell id="38" value="" style="endArrow=none;html=1;rounded=0;exitX=1;exitY=0.5;exitDx=0;exitDy=0;entryX=0;entryY=0.5;entryDx=0;entryDy=0;" edge="1" parent="1" source="31" target="34">
                    <mxGeometry relative="1" as="geometry">
                        <mxPoint x="250" y="310" as="sourcePoint"/>
                        <mxPoint x="410" y="310" as="targetPoint"/>
                    </mxGeometry>
                </mxCell>
                <mxCell id="39" value="" style="endArrow=none;html=1;rounded=0;exitX=1;exitY=0.5;exitDx=0;exitDy=0;entryX=0;entryY=1;entryDx=0;entryDy=0;" edge="1" parent="1" source="31" target="33">
                    <mxGeometry relative="1" as="geometry">
                        <mxPoint x="250" y="310" as="sourcePoint"/>
                        <mxPoint x="410" y="310" as="targetPoint"/>
                    </mxGeometry>
                </mxCell>
                <mxCell id="40" value="has" style="shape=rhombus;perimeter=rhombusPerimeter;whiteSpace=wrap;html=1;align=center;" vertex="1" parent="1">
                    <mxGeometry x="200" y="210" width="120" height="60" as="geometry"/>
                </mxCell>
                <mxCell id="41" value="" style="endArrow=none;html=1;rounded=0;dashed=1;dashPattern=1 2;entryX=0.5;entryY=1;entryDx=0;entryDy=0;exitX=0.5;exitY=0;exitDx=0;exitDy=0;" edge="1" parent="1" source="40" target="31">
                    <mxGeometry relative="1" as="geometry">
                        <mxPoint x="250" y="310" as="sourcePoint"/>
                        <mxPoint x="410" y="310" as="targetPoint"/>
                    </mxGeometry>
                </mxCell>
                <mxCell id="42" value="1" style="resizable=0;html=1;align=right;verticalAlign=bottom;" connectable="0" vertex="1" parent="41">
                    <mxGeometry x="1" relative="1" as="geometry">
                        <mxPoint y="20" as="offset"/>
                    </mxGeometry>
                </mxCell>
                <mxCell id="43" value="" style="endArrow=none;html=1;rounded=0;dashed=1;dashPattern=1 2;entryX=0.5;entryY=0;entryDx=0;entryDy=0;exitX=0.5;exitY=1;exitDx=0;exitDy=0;" edge="1" parent="1" source="40" target="2">
                    <mxGeometry relative="1" as="geometry">
                        <mxPoint x="270" y="140" as="sourcePoint"/>
                        <mxPoint x="270" y="220" as="targetPoint"/>
                    </mxGeometry>
                </mxCell>
                <mxCell id="44" value="1" style="resizable=0;html=1;align=right;verticalAlign=bottom;" connectable="0" vertex="1" parent="43">
                    <mxGeometry x="1" relative="1" as="geometry"/>
                </mxCell>
            </root>
        </mxGraphModel>
    </diagram>
</mxfile>